<svg width="15" height="14" fill="none" xmlns="http://www.w3.org/2000/svg"><path d="M3.204 5.706c-.456 0-.882-.072-1.278-.216a3.538 3.538 0 01-1.008-.612 2.801 2.801 0 01-.684-.9A2.697 2.697 0 010 2.862c0-.396.078-.768.234-1.116.168-.348.396-.648.684-.9.288-.252.624-.45 1.008-.594A3.455 3.455 0 013.204.018c.444 0 .858.078 1.242.234a3.2 3.2 0 011.026.594c.288.252.516.552.684.9.168.348.252.72.252 1.116 0 .396-.084.768-.252 1.116a2.801 2.801 0 01-.684.9c-.288.252-.63.456-1.026.612a3.509 3.509 0 01-1.242.216zm0-1.62c.24 0 .444-.12.612-.36.168-.24.252-.528.252-.864 0-.336-.084-.624-.252-.864-.168-.24-.372-.36-.612-.36s-.444.12-.612.36c-.168.24-.252.528-.252.864 0 .336.084.624.252.864.168.24.372.36.612.36zm7.722 9.072c-.456 0-.882-.072-1.278-.216a3.538 3.538 0 01-1.008-.612 2.801 2.801 0 01-.684-.9 2.697 2.697 0 01-.234-1.116c0-.396.078-.768.234-1.116.168-.348.396-.648.684-.9.288-.252.624-.45 1.008-.594a3.455 3.455 0 011.278-.234c.444 0 .858.078 1.242.234a3.2 3.2 0 011.026.594c.288.252.516.552.684.9.168.348.252.72.252 1.116 0 .396-.084.768-.252 1.116a2.801 2.801 0 01-.684.9c-.288.252-.63.456-1.026.612a3.509 3.509 0 01-1.242.216zm0-1.62c.24 0 .444-.12.612-.36.168-.24.252-.528.252-.864 0-.336-.084-.624-.252-.864-.168-.24-.372-.36-.612-.36s-.444.12-.612.36c-.168.24-.252.528-.252.864 0 .336.084.624.252.864.168.24.372.36.612.36zm-9.414.27l5.094-5.742L11.124 0l1.494 1.35L7.74 6.912l-4.734 6.246-1.494-1.35z" fill="#fff"/></svg>