<svg width="21" height="17" fill="none" xmlns="http://www.w3.org/2000/svg"><path d="M18.757 1.663a5.695 5.695 0 00-8.044 0l-.515.515-.515-.515a5.694 5.694 0 00-8.044 0C-.534 3.836-.548 7.28 1.606 9.674c1.965 2.183 7.759 6.9 8.004 7.1a.896.896 0 00.568.2h.02a.868.868 0 00.586-.2c.246-.2 6.04-4.917 8.006-7.1 2.153-2.394 2.14-5.838-.033-8.01zM17.451 8.47c-1.532 1.702-5.742 5.211-7.254 6.457-1.511-1.245-5.72-4.755-7.252-6.456C1.442 6.8 1.428 4.42 2.912 2.937A3.876 3.876 0 015.661 1.8c.995 0 1.99.38 2.748 1.137l1.132 1.132a.871.871 0 00.483.244.902.902 0 00.829-.244l1.133-1.132a3.892 3.892 0 015.497 0c1.484 1.484 1.47 3.862-.032 5.532z" fill="#858FA4"/></svg>