<svg width="40" height="40" fill="none" xmlns="http://www.w3.org/2000/svg"><path d="M40 20c0-6.516-5.29-11.871-11.871-11.871-2.839 0-5.42.968-7.484 2.645 1.549 1.484 2.774 3.355 3.355 5.484h-.968c-.645-1.871-1.677-3.548-3.096-4.903-1.42 1.355-2.452 3.032-3.097 4.903h-.968c.645-2.13 1.806-4 3.355-5.484-2.065-1.677-4.58-2.645-7.42-2.645C5.29 8.129 0 13.484 0 19.999c0 6.517 5.29 11.872 11.871 11.872 2.839 0 5.42-1.032 7.42-2.645a12.649 12.649 0 01-3.356-5.484h.968c.645 1.87 1.678 3.548 3.097 4.903 1.42-1.355 2.516-3.032 3.097-4.903h.967c-.645 2.129-1.806 4-3.354 5.484a11.759 11.759 0 007.483 2.645C34.71 31.87 40 26.516 40 20z" fill="#858FA4"/><path d="M31.29 22.774l.838-4.387h1.032l.13.451c.193-.193.515-.451 1.16-.451l-.322 1.161c-.323 0-.839-.064-1.226 1.226l-.387 2h-1.226zM15.481 17.29h1.161l-.258 1.161h.645l-.193.904h-.58l-.323 1.741c-.065.323 0 .646.645.517l-.13.967c-.257.194-.58.194-.902.194-.259 0-1.162-.194-.968-1.355l.903-4.129zm5.164 3.548c.129-.71.451-2.451-1.613-2.451-1.936 0-2.194 1.935-2.194 2.193-.064.258-.064 2.194 2 2.194.516 0 1.226-.065 1.549-.194l.193-.903c-.193.065-.838.13-1.355.13-.451 0-1.226 0-1.096-.969h2.516zm-6.322-1.419l.258-.903c-.58-.194-1.032-.194-1.16-.194-.194 0-1.614 0-1.807 1.033-.194.838.129 1.16.387 1.29.452.193.71.387.968.516.322.129.258.645-.13.645-.193 0-.967.065-1.548-.129l-.193.903c.58.13.967.13 1.419.13.323 0 1.742.064 1.936-1.226.129-.646-.194-.904-.388-1.097-.258-.13-.58-.387-.838-.452-.258-.129-.452-.516 0-.645.193.065.774.065 1.096.129zM6.58 22.774l1.032-5.29h-2l-1.42 3.225-.258-3.226h-1.87l-1.033 5.29h1.162l.774-3.806.322 3.807h1.097l1.678-3.742-.71 3.742H6.58zm1.353-4.258l-.194.968c.323 0 1.097-.13 1.484-.13s.903-.064.71.581c-.323 0-2.452-.322-2.774 1.549-.13.903.645 1.355 1.226 1.355.58 0 .774-.13.967-.258l.13.258h1.096l.452-2.387c.129-.581.322-2-1.678-2-.258-.065-.645-.065-1.419.064zm19.293.194c-.322-.194-.516-.194-.903-.194s-1.29.387-1.42 1.42c-.193 1.29.646 1.87 1.871 1.483l.323 1.097c-.387.193-.774.258-1.42.258-1.225 0-2.58-1.097-2-3.355.452-1.613 1.872-2.258 2.71-2.193.968.064 1.355.387 1.613.71l-.774.773zm10.128.193c-.258-.194-.387-.516-.904-.516-.645 0-1.677-.13-2.258 1.87-.387 1.356.388 2.517 1.226 2.517.387 0 .774-.194 1.032-.323l.13.323h1.29l1.032-5.548h-1.226l-.322 1.677z" fill="#1A1A25"/><path d="M28.066 18.516l-.194.968c.323 0 1.097-.13 1.484-.13s.839-.064.71.581c-.323 0-2.452-.322-2.774 1.549-.13.903.645 1.355 1.225 1.355.581 0 .775-.13.968-.258l.13.258h1.096l.452-2.387c.129-.581.322-2-1.678-2-.193-.065-.645-.065-1.42.064z" fill="#1A1A25"/><path d="M18.129 20h1.484c.064-.452-.065-.774-.516-.774-.517 0-.84.258-.968.774zm-8.386.838c-.194 0-.646-.129-1.033.13-.387.258-.516.71-.064.838.387.13.903-.129 1.032-.516l.065-.452zm27.224-.128c.13-.388.065-.904-.064-1.097-.388-.517-1.226-.13-1.484.838-.194.645.193 1.097.58 1.097.452 0 .71-.322.968-.839zm-7.033.128c-.194 0-.645-.129-1.032.13-.387.258-.516.71-.065.838.387.13.968-.129 1.032-.516l.065-.452z" fill="#858FA4"/><path d="M20.645 22.774l.838-4.322h1.032l.13.451c.193-.193.516-.451 1.16-.451l-.322 1.161c-.258 0-.838-.065-1.226 1.226l-.387 2h-1.226" fill="#1A1A25"/><path d="M11.87 8.129c-5.225 0-9.677 3.42-11.225 8.129h15.354c.646-2.13 1.807-4 3.355-5.484-2.129-1.613-4.71-2.645-7.484-2.645zM20 11.42a11.803 11.803 0 00-3.098 4.903h6.194c-.645-1.871-1.677-3.549-3.097-4.904zm8.128-3.291a11.76 11.76 0 00-7.483 2.645 12.649 12.649 0 013.354 5.484h15.355c-1.484-4.71-5.935-8.13-11.226-8.13z" fill="#858FA4"/></svg>