<svg width="21" height="20" fill="none" xmlns="http://www.w3.org/2000/svg"><g clip-path="url(#clip0_5888_12968)" fill="#fff"><path d="M8.188 14.677v3.865a.626.626 0 001.132.37l2.27-3.077-3.402-1.158zM20.682.116a.63.63 0 00-.654-.045L1.204 9.863a.626.626 0 00.087 1.145l5.233 1.782L17.67 3.298l-8.624 10.35 8.77 2.985a.632.632 0 00.529-.058.628.628 0 00.295-.44L20.94.718a.625.625 0 00-.257-.602z"/></g><defs><clipPath id="clip0_5888_12968"><path fill="#fff" transform="translate(.867)" d="M0 0h20.079v20H0z"/></clipPath></defs></svg>